<svg width="25" height="25" viewBox="0 0 25 25" fill="none" xmlns="http://www.w3.org/2000/svg">
<path d="M10.3876 4.43536C7.08187 4.43559 4.43566 7.0818 4.43542 10.3875C4.43542 13.6934 7.08172 16.3404 10.3876 16.3406C13.6936 16.3406 16.3407 13.6936 16.3407 10.3875C16.3405 7.08165 13.6935 4.43536 10.3876 4.43536ZM16.3407 16.8865L16.2675 16.8133L15.9247 16.4715L15.7616 16.3074L15.5858 16.4578C14.1365 17.6949 12.2931 18.3747 10.3876 18.3748C8.26951 18.3747 6.23782 17.5327 4.74011 16.035C3.24258 14.5372 2.40125 12.5055 2.40125 10.3875C2.40136 8.26944 3.24241 6.23775 4.74011 4.74005C6.23782 3.24234 8.26951 2.40129 10.3876 2.40118C12.5056 2.40118 14.5373 3.24251 16.035 4.74005C17.5327 6.23775 18.3748 8.26944 18.3749 10.3875C18.3749 12.3655 17.6502 14.1843 16.4579 15.5857L16.3085 15.7615L16.4716 15.9246L16.8134 16.2674L16.8866 16.3406H17.8876L21.4384 19.8914L19.8915 21.4383L16.3407 17.8875V16.8865Z" fill="black" stroke="black" stroke-width="0.5"/>
</svg>
